<?xml version="1.0" standalone="no"?>
<!DOCTYPE svg PUBLIC "-//W3C//DTD SVG 20010904//EN"
 "http://www.w3.org/TR/2001/REC-SVG-20010904/DTD/svg10.dtd">
<svg version="1.0" xmlns="http://www.w3.org/2000/svg"
 width="1394.000000pt" height="1394.000000pt" viewBox="0 0 1394.000000 1394.000000"
 preserveAspectRatio="xMidYMid meet">
<metadata>
Created by potrace 1.14, written by Peter Selinger 2001-2017
</metadata>
<g transform="translate(0.000000,1394.000000) scale(0.100000,-0.100000)"
fill="#000000" stroke="none">
<path d="M10410 11534 c-22 -9 -230 -209 -562 -542 -291 -290 -528 -523 -528
-518 0 4 19 98 41 207 48 230 47 251 -12 310 -36 36 -43 39 -97 39 -94 0 -146
-47 -178 -160 -7 -25 -42 -148 -79 -275 -37 -126 -78 -266 -90 -310 -13 -44
-36 -123 -51 -175 l-27 -95 -944 -945 -944 -944 -790 789 c-434 435 -813 822
-842 860 -107 144 -210 256 -347 375 -30 27 -100 82 -155 124 -55 41 -111 84
-124 95 -65 52 -374 182 -561 236 -66 19 -239 55 -295 61 -21 2 -51 7 -65 10
-14 3 -108 7 -210 9 -184 3 -242 -1 -430 -30 -171 -27 -524 -147 -630 -214
-14 -9 -47 -27 -73 -41 -50 -26 -198 -126 -353 -240 -112 -81 -222 -190 -259
-255 -16 -27 -43 -68 -60 -90 -213 -270 -395 -706 -431 -1030 -2 -22 -7 -56
-10 -75 -4 -19 -8 -109 -9 -200 -3 -178 12 -339 45 -497 12 -54 23 -108 26
-119 8 -40 85 -256 114 -320 16 -35 38 -98 50 -140 23 -85 67 -178 116 -244
38 -53 4302 -4321 4420 -4425 97 -86 188 -173 440 -423 229 -227 270 -254 404
-258 150 -6 211 27 409 223 214 211 370 362 516 499 178 167 4295 4283 4353
4353 52 62 53 63 277 275 217 206 758 745 778 776 42 65 16 175 -49 212 -40
23 -103 29 -141 13 -16 -7 -159 -142 -317 -300 l-288 -287 -26 26 -27 26 375
374 c376 376 398 402 399 470 1 35 -32 95 -66 120 -29 21 -98 32 -140 22 -19
-5 -152 -131 -408 -387 l-381 -380 -24 26 -24 26 446 447 c473 474 473 474
462 554 -14 94 -126 157 -211 118 -25 -11 -193 -173 -478 -458 l-440 -441 -22
21 c-13 12 -23 25 -23 30 0 5 164 173 365 374 201 201 372 376 380 387 19 30
26 75 19 116 -8 42 -71 107 -113 116 -31 7 -28 9 298 335 182 181 336 341 344
357 46 95 -10 207 -112 220 -80 11 -96 -2 -398 -303 -157 -156 -288 -284 -292
-284 -4 0 -17 10 -29 23 l-21 23 370 369 c204 204 377 383 385 398 45 84 -5
193 -99 218 -86 23 -87 22 -499 -389 l-378 -377 -25 26 -26 25 439 440 c242
241 446 453 455 469 19 38 15 113 -8 149 -40 61 -124 89 -187 63 -21 -9 -204
-184 -477 -457 l-443 -443 -26 26 -26 26 375 375 c205 206 379 387 386 403 50
118 -67 246 -188 206 -38 -13 -121 -92 -566 -536 -463 -462 -559 -555 -541
-521 26 48 40 93 40 123 0 38 15 134 33 211 14 59 12 97 -6 132 -22 43 -59 74
-98 83 -21 4 -27 11 -26 28 3 39 -25 92 -62 117 -39 27 -122 36 -158 18 -11
-6 -189 -179 -396 -385 l-376 -375 -22 23 c-11 12 -21 26 -21 29 0 4 193 200
429 436 235 236 438 445 450 464 38 64 18 157 -45 203 -36 27 -113 33 -153 13
-18 -10 -228 -213 -467 -452 -239 -239 -438 -434 -442 -434 -5 0 -18 10 -30
23 l-21 23 370 369 c204 204 377 382 385 397 8 15 14 50 14 77 0 42 -5 56 -32
87 -49 55 -118 74 -178 48z m518 -1047 c-20 -67 -22 -69 -250 -297 -126 -127
-232 -230 -236 -230 -4 0 -15 12 -26 26 l-19 26 274 274 c150 150 274 272 276
271 1 -2 -7 -33 -19 -70z m-5148 -5352 c13 -14 21 -25 18 -25 -2 0 -15 11 -28
25 -13 14 -21 25 -18 25 2 0 15 -11 28 -25z m2110 -198 c0 -2 -10 -12 -22 -23
l-23 -19 19 23 c18 21 26 27 26 19z m-1879 -34 c13 -16 12 -17 -3 -4 -10 7
-18 15 -18 17 0 8 8 3 21 -13z m1819 -16 c0 -2 -10 -12 -22 -23 l-23 -19 19
23 c18 21 26 27 26 19z m-180 -122 c0 -2 -10 -9 -22 -15 -22 -11 -22 -10 -4 4
21 17 26 19 26 11z m-1345 -45 c3 -6 -1 -7 -9 -4 -18 7 -21 14 -7 14 6 0 13
-4 16 -10z m1175 -40 c-8 -5 -19 -10 -25 -10 -5 0 -3 5 5 10 8 5 20 10 25 10
6 0 3 -5 -5 -10z m-130 -44 c0 -2 -9 -6 -20 -9 -11 -3 -18 -1 -14 4 5 9 34 13
34 5z m-693 -32 c-3 -3 -12 -4 -19 -1 -8 3 -5 6 6 6 11 1 17 -2 13 -5z m566
-1 c-7 -2 -19 -2 -25 0 -7 3 -2 5 12 5 14 0 19 -2 13 -5z m-496 -9 c-3 -3 -12
-4 -19 -1 -8 3 -5 6 6 6 11 1 17 -2 13 -5z m430 0 c-3 -3 -12 -4 -19 -1 -8 3
-5 6 6 6 11 1 17 -2 13 -5z m-252 -14 c3 -5 1 -10 -4 -10 -6 0 -11 5 -11 10 0
6 2 10 4 10 3 0 8 -4 11 -10z m178 3 c-7 -2 -19 -2 -25 0 -7 3 -2 5 12 5 14 0
19 -2 13 -5z"/>
</g>
</svg>
